<svg width="48" height="24" viewBox="0 0 48 24" fill="none" xmlns="http://www.w3.org/2000/svg">
<g clip-path="url(#clip0_1372_5165)">
<path fill-rule="evenodd" clip-rule="evenodd" d="M0 24H48V0H0V24Z" fill="#E20714"/>
<path d="M15.2399 15.4802C15.2279 15.6482 15.2279 15.8162 15.2399 15.9962V19.1162H13.0199C12.9959 19.0202 12.9839 8.43622 13.0199 8.28022C13.1159 8.25622 15.0119 8.24422 15.1559 8.28022L15.2519 8.97622C15.2879 8.94022 15.3239 8.94022 15.3359 8.91622C15.7559 8.29222 16.4279 7.89622 17.1839 7.83622C18.1079 7.69222 19.0559 7.93222 19.7999 8.50822C20.2439 8.88022 20.5919 9.36022 20.8079 9.90022C21.0119 10.3802 21.1439 10.8962 21.2039 11.4122C21.2519 11.8322 21.2759 12.2522 21.2519 12.6722C21.2399 13.5482 20.9999 14.4002 20.5799 15.1562C20.0999 15.9962 19.2719 16.5722 18.3119 16.7282C17.8679 16.8122 17.4119 16.8122 16.9559 16.7282C16.4519 16.6442 15.9959 16.3922 15.6719 15.9962C15.5519 15.8522 15.4439 15.7082 15.3239 15.5642L15.2519 15.4682L15.2399 15.4802ZM19.0319 12.2882C19.0319 12.0842 19.0079 11.8802 18.9839 11.6762C18.9479 11.3162 18.8519 10.9562 18.6959 10.6322C18.4919 10.1642 18.0959 9.82822 17.6039 9.69622C17.3759 9.64822 17.1359 9.63622 16.9079 9.66022C16.3679 9.69622 15.8759 9.99622 15.5879 10.4522C15.3959 10.7762 15.2879 11.1242 15.2399 11.4962C15.1679 11.9522 15.1679 12.4202 15.2159 12.8882C15.2399 13.1882 15.3119 13.4882 15.4319 13.7762C15.6119 14.2922 16.0439 14.6882 16.5719 14.8202C16.7879 14.8682 17.0039 14.8922 17.2319 14.8922C17.6399 14.8922 18.0239 14.7362 18.3119 14.4482C18.5039 14.2562 18.6479 14.0282 18.7439 13.7882C18.9359 13.3082 19.0319 12.8042 19.0319 12.2882ZM43.3199 16.6802H41.2679C41.1599 16.3802 41.1359 16.0682 41.0159 15.7562C40.9799 15.7802 40.9439 15.7922 40.9319 15.8042C40.5359 16.3082 39.9599 16.6562 39.3239 16.7522C38.8919 16.8602 38.4479 16.8842 38.0039 16.8362C37.3079 16.7642 36.6599 16.4522 36.1679 15.9482C35.7719 15.5402 35.5439 15.0122 35.5079 14.4362C35.4839 14.1242 35.5079 13.8122 35.5799 13.5122C35.7239 12.9122 36.1079 12.3962 36.6599 12.0962C37.0319 11.8802 37.4399 11.7362 37.8599 11.6522C38.1359 11.6042 38.4239 11.5682 38.6999 11.5202L39.6599 11.3762L40.3559 11.2562C40.4279 11.2442 40.4879 11.2202 40.5599 11.1962C40.8959 11.1002 41.0879 10.7642 40.9919 10.4282C40.9559 10.1402 40.7759 9.90022 40.5119 9.79222C40.3439 9.70822 40.1639 9.66022 39.9719 9.63622C39.6119 9.57622 39.2399 9.57622 38.8799 9.63622C38.4719 9.69622 38.1359 9.98422 38.0039 10.3682C37.9559 10.4882 37.9199 10.6202 37.8719 10.7522H35.8079V10.6082C35.8439 10.2602 35.9279 9.91222 36.0599 9.58822C36.3119 8.94022 36.8519 8.44822 37.5119 8.24422C37.8839 8.12422 38.2559 8.05222 38.6399 8.02822C39.1439 7.99222 39.6479 7.99222 40.1519 8.02822C40.6919 8.06422 41.2199 8.18422 41.7119 8.37622C42.0599 8.52022 42.3839 8.73622 42.6239 9.02422C42.8639 9.30022 43.0079 9.63622 43.0439 9.99622C43.0559 10.1402 43.0679 10.2842 43.0679 10.4162V14.9402C43.0679 15.2282 43.0679 15.5162 43.0919 15.8042C43.1039 16.0562 43.1639 16.2962 43.2719 16.5242C43.2959 16.5962 43.3079 16.6442 43.3199 16.6802ZM40.9919 12.4682L40.8359 12.5042C40.4399 12.6002 40.0439 12.6962 39.6479 12.7802C39.2399 12.8642 38.8439 12.9842 38.4719 13.1522C38.2439 13.2482 38.0519 13.3922 37.8719 13.5722C37.5119 13.9802 37.5599 14.5922 37.9559 14.9402C38.0039 14.9882 38.0639 15.0242 38.1359 15.0602C38.3039 15.1442 38.4959 15.2042 38.6879 15.2042C39.0239 15.2162 39.3479 15.1682 39.6719 15.0722C40.0799 14.9642 40.4399 14.7362 40.7159 14.4242C40.8839 14.2442 40.9919 14.0042 40.9919 13.7522C40.9919 13.3562 40.9919 12.9602 41.0159 12.5642C41.0039 12.5402 40.9919 12.5042 40.9919 12.4682ZM12.5999 16.6802H10.5479C10.4399 16.3802 10.4159 16.0682 10.2959 15.7562C10.2599 15.7682 10.2359 15.7922 10.1999 15.8282C9.85186 16.2722 9.35986 16.5842 8.80786 16.7162C8.30385 16.8722 7.78785 16.9202 7.25985 16.8482C6.51585 16.7762 5.83185 16.4282 5.33985 15.8642C4.97985 15.4562 4.78785 14.9282 4.77585 14.3882C4.75185 14.0642 4.78785 13.7522 4.87185 13.4402C5.02785 12.8642 5.41185 12.3722 5.95185 12.0962C6.32385 11.8922 6.71985 11.7482 7.13985 11.6762C7.48785 11.6162 7.83585 11.5682 8.18385 11.5202C8.53185 11.4722 8.93985 11.4002 9.31185 11.3402C9.47986 11.3162 9.64786 11.2802 9.81586 11.2322C9.89986 11.2082 9.98386 11.1602 10.0679 11.1122C10.1999 11.0282 10.2839 10.8842 10.2959 10.7402C10.3679 10.3682 10.1759 9.99622 9.82786 9.82822C9.64786 9.74422 9.46786 9.68422 9.27586 9.66022C8.91586 9.60022 8.54385 9.60022 8.17185 9.66022C7.78785 9.72022 7.46385 9.98422 7.33185 10.3442C7.27185 10.4762 7.23585 10.6202 7.17585 10.7762H5.08785V10.6562C5.12385 10.2722 5.21985 9.90022 5.36385 9.55222C5.61585 8.94022 6.13185 8.47222 6.75585 8.26822C7.12785 8.14822 7.52385 8.07622 7.91985 8.05222C8.42385 8.01622 8.92786 8.01622 9.41986 8.05222C10.0199 8.08822 10.6079 8.22022 11.1599 8.47222C11.3999 8.58022 11.6039 8.72422 11.7959 8.90422C12.1439 9.25222 12.3479 9.72022 12.3599 10.2122V15.3842C12.3479 15.6362 12.3719 15.9002 12.4319 16.1522C12.4679 16.2842 12.5159 16.4042 12.5519 16.5242C12.5639 16.5842 12.5879 16.6202 12.5999 16.6802ZM10.2839 12.4682L10.1039 12.5042C9.71985 12.6002 9.32386 12.6962 8.92786 12.7802C8.53186 12.8522 8.13585 12.9722 7.76385 13.1282C7.54785 13.2362 7.34385 13.3682 7.17585 13.5482C6.80385 13.9442 6.82785 14.5562 7.22385 14.9162C7.27185 14.9642 7.33185 15.0002 7.37985 15.0362C7.55985 15.1442 7.76385 15.1922 7.97985 15.2042C8.24385 15.2162 8.50785 15.1802 8.77185 15.1202C9.17985 15.0362 9.55185 14.8322 9.86385 14.5562C10.1039 14.3522 10.2479 14.0762 10.2719 13.7642C10.2719 13.4522 10.2959 13.1282 10.3079 12.8162C10.2959 12.7082 10.2839 12.6002 10.2839 12.4682ZM31.9199 4.92022V16.6682C31.8239 16.6922 30.0839 16.7042 29.8919 16.6682V4.92022C29.9879 4.89622 31.7399 4.89622 31.9199 4.92022ZM23.8799 16.6802H21.7199V8.32822C21.8159 8.30422 23.5319 8.29222 23.7599 8.32822L23.9279 9.33622C23.9519 9.31222 23.9759 9.27622 23.9879 9.25222C24.0359 9.15622 24.0839 9.06022 24.1439 8.97622C24.4199 8.52022 24.8999 8.20822 25.4399 8.16022C25.6439 8.13622 25.8599 8.13622 26.0759 8.13622C26.1479 8.14822 26.2079 8.16022 26.2799 8.18422V10.3082C26.1719 10.3082 26.0639 10.2842 25.9559 10.2842C25.5119 10.2842 25.0679 10.4522 24.7439 10.7642C24.3839 11.1002 24.1319 11.5202 23.9879 11.9882C23.9039 12.2762 23.8559 12.5642 23.8679 12.8642V16.6802H23.8799ZM29.1599 16.6802H27.0719V8.29222H29.1599C29.1839 8.37622 29.1959 16.5122 29.1599 16.6802ZM34.7999 16.6802H32.7119V8.29222H34.7759C34.8239 8.37622 34.8359 16.4882 34.7999 16.6802ZM32.6399 6.88822V4.90822H34.7279V6.87622C34.6199 6.91222 32.8319 6.91222 32.6399 6.88822ZM27.1199 4.90822H29.1839C29.2199 5.00422 29.2199 6.55222 29.1839 6.87622H27.1199C27.0959 6.80422 27.0959 5.06422 27.1199 4.90822ZM45.4799 6.02422C45.4799 6.68422 44.9399 7.21222 44.2799 7.21222C43.6199 7.21222 43.0919 6.67222 43.0919 6.01222C43.0919 5.35222 43.6319 4.82422 44.2799 4.82422C44.9519 4.82422 45.4799 5.35222 45.4799 6.02422ZM45.3239 6.02422C45.3239 5.44822 44.8559 4.98022 44.2799 4.98022C43.7039 4.98022 43.2359 5.44822 43.2359 6.02422C43.2359 6.60022 43.7039 7.06822 44.2799 7.06822C44.8439 7.08022 45.3119 6.63622 45.3239 6.06022V6.02422Z" fill="black"/>
<path d="M44.64 6.05988C44.928 6.16788 44.892 6.40788 44.892 6.64788H44.712C44.712 6.61188 44.712 6.56388 44.7 6.52788V6.37188C44.688 6.26388 44.604 6.17988 44.496 6.16788C44.388 6.16788 44.268 6.16788 44.148 6.14388V6.65988H43.944C43.908 6.22788 43.908 5.79588 43.944 5.36388C44.184 5.35188 44.436 5.36387 44.676 5.39987C44.82 5.42387 44.928 5.55587 44.928 5.69988C44.964 5.84388 44.88 5.99988 44.736 6.04788L44.64 6.05988ZM44.124 5.98788H44.436C44.484 5.97588 44.544 5.96388 44.592 5.93988C44.664 5.90388 44.7 5.81988 44.688 5.73587C44.7 5.66387 44.652 5.57987 44.58 5.55587C44.436 5.50787 44.28 5.49587 44.124 5.51987V5.98788Z" fill="black"/>
</g>
<defs>
<clipPath id="clip0_1372_5165">
<rect width="48" height="24" fill="white"/>
</clipPath>
</defs>
</svg>
