<svg width="57" height="21" viewBox="0 0 57 21" fill="none" xmlns="http://www.w3.org/2000/svg">
<g clip-path="url(#clip0_1372_5169)">
<path d="M10.6025 17.272C10.1251 17.272 9.73898 17.4129 9.44362 17.6952C9.14826 17.9776 9.00083 18.3077 9.00083 18.6846C9.00083 19.0681 9.14892 19.3992 9.44628 19.6776C9.74364 19.956 10.1291 20.0947 10.6025 20.0947C11.0706 20.0947 11.4538 19.9547 11.7525 19.6749C12.0512 19.3952 12.2006 19.0655 12.2006 18.6846C12.2006 18.3091 12.0534 17.9791 11.7587 17.6961C11.464 17.4131 11.0786 17.272 10.6025 17.272ZM21.6759 17.272C21.1985 17.272 20.8123 17.4129 20.517 17.6952C20.2216 17.9776 20.0733 18.3077 20.0733 18.6846C20.0733 19.0681 20.2223 19.3992 20.5196 19.6776C20.817 19.956 21.2025 20.0947 21.6759 20.0947C22.1439 20.0947 22.5272 19.9547 22.8259 19.6749C23.1246 19.3952 23.274 19.0655 23.274 18.6846C23.274 18.3091 23.1268 17.9791 22.8321 17.6961C22.5374 17.4131 22.1519 17.272 21.6759 17.272ZM32.6587 17.272C32.1587 17.272 31.7539 17.4097 31.4439 17.6855C31.1339 17.9613 30.9789 18.2973 30.9789 18.6926C30.9789 19.0879 31.1259 19.4202 31.4199 19.69C31.714 19.9599 32.1085 20.0947 32.6046 20.0947C32.9873 20.0947 33.3538 20.0039 33.7031 19.8214V19.2206C33.4391 19.348 33.2402 19.4299 33.1068 19.4673C32.9735 19.5047 32.8347 19.5232 32.6906 19.5232C32.4 19.5232 32.1615 19.4443 31.9754 19.2854C31.7894 19.1265 31.6968 18.9245 31.6968 18.6802C31.6968 18.4373 31.7912 18.2373 31.9799 18.0804C32.1686 17.9234 32.411 17.8452 32.7084 17.8452C33.0111 17.8452 33.3325 17.9387 33.6712 18.1265V17.5142C33.3951 17.3527 33.0574 17.272 32.6587 17.272ZM43.268 17.272C42.7679 17.272 42.3623 17.4097 42.0523 17.6855C41.7423 17.9613 41.5873 18.2973 41.5873 18.6926C41.5873 19.0879 41.7343 19.4202 42.0283 19.69C42.3223 19.9599 42.7178 20.0947 43.2138 20.0947C43.5965 20.0947 43.9621 20.0039 44.3115 19.8214V19.2206C44.0475 19.348 43.8494 19.4299 43.7161 19.4673C43.5827 19.5047 43.4439 19.5232 43.2999 19.5232C43.0092 19.5232 42.7707 19.4443 42.5847 19.2854C42.3987 19.1265 42.3061 18.9245 42.3061 18.6802C42.3061 18.4373 42.3996 18.2373 42.5882 18.0804C42.7769 17.9234 43.0203 17.8452 43.3177 17.8452C43.6203 17.8452 43.9409 17.9387 44.2796 18.1265V17.5142C44.0035 17.3527 43.6667 17.272 43.268 17.272ZM3.22412 17.3075V20.0592H3.91981V18.3412L4.67407 19.2046H4.78055L5.53392 18.3412V20.0592H6.23049V17.3075H5.62443L4.72642 18.3279L3.83019 17.3075H3.22412ZM14.7793 17.3075V17.8115H15.7909V20.0592H16.4875V17.8115H17.4991V17.3075H14.7793ZM26.0505 17.3075V20.0592H26.7462V18.942H26.9459C27.0379 18.942 27.1243 18.9789 27.205 19.0511C27.2857 19.1234 27.3825 19.2862 27.4952 19.541C27.6078 19.7957 27.6867 19.9686 27.7321 20.0592H28.4988C28.3814 19.8149 28.2592 19.555 28.1332 19.2792C28.0072 19.0034 27.8734 18.8351 27.7321 18.7734C28.0521 18.6276 28.2121 18.4024 28.2121 18.099C28.2121 17.8797 28.1277 17.6934 27.9584 17.5391C27.789 17.3848 27.5689 17.3075 27.2982 17.3075H26.0505ZM36.2188 17.3075L37.3209 18.7734V20.0592H38.0175V18.7734L39.1196 17.3075H38.2792L37.6696 18.1726L37.0635 17.3075H36.2188ZM47.1404 17.3075V20.0592H49.2701V19.5551H47.8361V17.3075H47.1404ZM51.9401 17.3075V20.0592H54.0006V19.5551H52.6367V18.8932H53.9109V18.3892H52.6367V17.8115H53.9731V17.3075H51.9401ZM26.7462 17.8115H27.0985C27.3639 17.8115 27.496 17.9155 27.496 18.123C27.496 18.2241 27.4618 18.3018 27.3931 18.3563C27.3244 18.4108 27.2318 18.438 27.1145 18.438H26.7462V17.8115ZM10.6025 17.8452C10.8665 17.8452 11.0792 17.9223 11.2405 18.0759C11.4019 18.2296 11.4828 18.4325 11.4828 18.6846C11.4828 18.9355 11.4019 19.1382 11.2405 19.2925C11.0792 19.4468 10.8665 19.5232 10.6025 19.5232C10.3372 19.5232 10.1239 19.4468 9.96184 19.2925C9.79982 19.1382 9.7187 18.9355 9.7187 18.6846C9.7187 18.4325 9.79982 18.2296 9.96184 18.0759C10.1239 17.9223 10.3372 17.8452 10.6025 17.8452ZM21.6759 17.8452C21.9399 17.8452 22.1525 17.9223 22.3139 18.0759C22.4752 18.2296 22.5561 18.4325 22.5561 18.6846C22.5561 18.9355 22.4752 19.1382 22.3139 19.2925C22.1525 19.4468 21.9399 19.5232 21.6759 19.5232C21.4105 19.5232 21.1963 19.4468 21.0343 19.2925C20.8723 19.1382 20.7921 18.9355 20.7921 18.6846C20.7921 18.4325 20.8723 18.2296 21.0343 18.0759C21.1963 17.9223 21.4105 17.8452 21.6759 17.8452Z" fill="#512F1A" stroke="#512F1A" stroke-width="0.612746"/>
<path d="M19.1682 0.695368C18.6434 0.696255 18.1265 0.707791 17.8514 0.729088C15.7892 0.888812 14.231 1.45672 13.2265 2.40797L12.9177 2.70257L12.2255 2.74517C9.98939 2.88359 8.62286 3.25983 7.70356 3.99102C6.94043 4.59797 6.64583 5.41079 6.89074 6.23781C6.97238 6.51467 7.05756 6.66019 7.27763 6.89801C7.7568 7.41622 8.44894 7.64339 9.43568 7.60079C10.2911 7.5653 10.9016 7.34168 11.3382 6.90156C11.5511 6.68859 11.7286 6.42593 11.6896 6.38689C11.6789 6.37979 11.5547 6.40108 11.4127 6.44013C10.7525 6.6105 9.91486 6.62825 9.52442 6.47917C9.05589 6.3017 8.86777 6.04259 8.89617 5.63086C8.92101 5.30431 9.03815 5.08424 9.3505 4.79674C9.88646 4.29982 10.9371 3.90583 12.0268 3.79225C12.2468 3.77095 12.2717 3.7745 12.2504 3.82774C12.1262 4.15074 12.0303 4.86418 12.0623 5.23332C12.1652 6.38689 12.7331 7.21745 13.8796 7.8812C13.9399 7.91669 13.9364 7.93799 13.7908 8.25389C13.3649 9.18739 12.7509 10.1635 12.0871 10.9586C10.82 12.4742 9.34695 13.4858 7.88458 13.8407C6.90494 14.0821 5.8827 14.0998 5.07343 13.8939C4.71849 13.8017 4.14703 13.5283 3.86662 13.3118C3.01121 12.6552 2.69531 11.5726 3.11769 10.742C3.38035 10.2238 4.07249 9.7624 4.81432 9.61332C5.21541 9.53169 5.93239 9.55653 6.15601 9.65592C6.48965 9.80854 6.66713 10.0996 6.58194 10.3587C6.45416 10.7527 6.01403 10.9479 5.13022 11.0047C4.71849 11.0331 4.71849 11.0331 5.06988 11.2851C5.37158 11.4981 5.73362 11.6755 6.10632 11.782C6.35833 11.8566 6.52515 11.8814 6.93688 11.8956C7.7426 11.9276 8.24662 11.7962 8.72935 11.4342C8.93521 11.2816 8.9991 11.207 9.10204 11.0083C9.20852 10.7953 9.22272 10.7314 9.22272 10.5113C9.21207 9.54943 8.20403 8.83955 6.53225 8.61948C5.95014 8.54139 4.87821 8.54139 4.3458 8.61948C3.20643 8.77921 2.28003 9.18029 1.61628 9.79789C0.956089 10.4084 0.650838 11.1147 0.70053 11.9063C0.807013 13.5 2.00672 14.6003 4.24286 15.1504C4.86046 15.2995 5.30769 15.3528 6.19505 15.3741C7.62547 15.4096 8.78969 15.2392 10.071 14.8132C11.9735 14.1779 13.8441 12.7546 15.1254 10.9621C15.4839 10.4616 16.0873 9.52104 16.4565 8.88569L16.744 8.39232H16.964C17.0847 8.39232 17.3332 8.36747 17.5177 8.33553C18.8807 8.10126 19.8426 7.34523 20.0556 6.33365C20.194 5.6699 19.9668 5.0239 19.3847 4.43825L19.0724 4.12235L19.1966 3.94133C19.7361 3.1569 20.801 2.07787 21.8339 1.2615C22.0717 1.07338 22.2562 0.910109 22.242 0.895911C22.2136 0.871065 21.2482 0.771681 20.5312 0.725538C20.226 0.704241 19.6931 0.694481 19.1682 0.695368ZM18.9588 1.51351C19.0582 1.50996 19.1505 1.52061 19.1611 1.53836C19.1718 1.55256 19.0333 1.67679 18.8523 1.81167C18.4548 2.10627 17.9224 2.5606 17.4929 2.97233L17.1734 3.27403L16.7688 3.1711C16.5452 3.11431 16.1051 3.02912 15.7927 2.97588C15.4804 2.92619 15.1538 2.8765 15.0651 2.8623L14.9054 2.8339L15.2 2.59964C15.5194 2.34763 16.098 2.03173 16.5026 1.8862C16.8433 1.76552 17.4929 1.62355 17.9224 1.5774C18.2454 1.54546 18.4086 1.53481 18.9588 1.51351ZM14.6693 3.74256C14.8743 3.74389 15.1361 3.76208 15.3916 3.7958C15.7359 3.84194 16.3926 3.99102 16.4352 4.03716C16.4423 4.04426 16.3109 4.21818 16.1406 4.4205C15.7572 4.87838 15.3419 5.43919 14.9621 6.0071L14.6711 6.44368L14.5256 6.36204C14.0145 6.07454 13.8192 5.3398 14.018 4.46664C14.0677 4.24658 14.2168 3.87744 14.2878 3.7887C14.3162 3.75676 14.4643 3.74123 14.6693 3.74256ZM36.6066 4.41695L35.4211 4.4205L34.2711 6.04969C33.6393 6.9477 33.1104 7.68243 33.0997 7.68243C33.0891 7.68243 33.0075 7.63274 32.9223 7.57595C32.5034 7.29199 31.8113 7.2707 30.7713 7.51206C28.4926 8.04092 26.4659 9.734 25.2484 12.1334L24.9786 12.6658L24.6698 12.8504C24.1374 13.1734 23.8038 13.2586 23.6725 13.1095C23.6157 13.0527 23.6121 13.0208 23.6405 12.9391C23.6618 12.8859 24.212 12.0127 24.8615 10.9976C25.5146 9.98601 26.1003 9.05251 26.1606 8.92473C26.551 8.14386 26.2529 7.60789 25.3229 7.42687C24.7195 7.30619 23.5518 7.45527 22.6289 7.77117L22.3627 7.8599L22.2669 7.74277C22.0255 7.44817 21.4683 7.28489 21.0246 7.38073C20.5135 7.48721 20.0556 7.79601 19.1114 8.67627C18.7707 8.99217 18.3874 9.34002 18.2596 9.4465C17.9259 9.72336 17.4645 9.94342 17.0705 10.0109C16.8966 10.0428 16.744 10.0747 16.7369 10.0818C16.7014 10.1138 16.8611 10.3906 16.9711 10.4865C17.1096 10.6072 17.2693 10.6462 17.5568 10.6178C17.9543 10.5823 18.6358 10.1883 19.2499 9.63817C19.4131 9.49619 19.4948 9.4394 19.4664 9.49264C19.4309 9.55653 16.6197 13.6313 15.9808 14.5399L15.9134 14.6393H17.1202H18.3235L19.5587 12.8646C20.6625 11.278 20.8045 11.0899 20.8862 11.0899C21.0601 11.0899 21.525 10.9515 21.7487 10.8343C22.0078 10.6995 22.3024 10.419 22.4089 10.2096C22.4515 10.128 22.4834 10.057 22.4834 10.0499C22.4834 10.0428 22.3982 10.0499 22.2988 10.0677C21.9084 10.1386 21.667 10.0606 21.667 9.86178C21.667 9.75175 21.8729 9.36841 22.0291 9.19094C22.4798 8.67982 23.6192 8.70467 23.6192 9.22643C23.6192 9.38616 23.5269 9.54588 22.9093 10.4332C22.2243 11.4129 21.3831 12.6836 21.0814 13.1841C20.6767 13.8549 20.6093 14.0608 20.7229 14.2773C20.8932 14.6038 21.3547 14.7849 22.022 14.7884C22.5934 14.7919 23.3317 14.5506 24.4888 13.9791C24.9609 13.7484 25.0958 13.6952 25.1171 13.7307C25.3052 14.0679 25.7879 14.4335 26.2351 14.579C26.6291 14.7103 26.874 14.7458 27.3426 14.7458C28.0241 14.7458 28.6488 14.5754 29.2273 14.2347L29.4935 14.0821L29.6284 14.2347C29.9975 14.6571 30.9097 14.8203 31.6267 14.6003C31.9462 14.5009 32.1627 14.3909 32.507 14.1495L32.7874 13.9543L32.8619 14.0572C33.0714 14.3518 33.405 14.5612 33.8309 14.6606C34.0191 14.7068 34.1681 14.7139 34.4876 14.6961C35.2578 14.6535 35.9677 14.4051 36.8905 13.8478C37.0858 13.7342 37.1958 13.6845 37.2064 13.7094C37.2384 13.8123 37.5117 14.114 37.6856 14.2453C38.1257 14.579 38.7114 14.7458 39.4319 14.7458C40.1383 14.7458 40.802 14.5612 41.3557 14.2134L41.5864 14.0714L41.7391 14.2418C42.1295 14.6748 43.0204 14.8239 43.7871 14.5825C44.355 14.4015 44.7987 14.1211 45.3382 13.5958C45.5405 13.397 46.3888 12.428 47.23 11.4377C48.0677 10.4474 48.8237 9.57428 48.9125 9.49619C49.1645 9.27613 49.3065 9.27613 49.1893 9.49619C49.1574 9.56008 48.3801 10.6959 47.4572 12.0269C46.5343 13.358 45.7535 14.4867 45.718 14.5399L45.6541 14.6393H46.8538H48.0571L49.2994 12.8646C50.3713 11.3348 50.5523 11.0899 50.6304 11.0899C50.8043 11.0863 51.1841 10.9799 51.429 10.8592C51.6952 10.7314 51.9579 10.5042 52.0963 10.2842C52.2418 10.0464 52.2418 10.0322 52.075 10.0641C51.8301 10.1102 51.5745 10.0996 51.4894 10.0393C51.209 9.84404 51.7343 9.05961 52.2951 8.83955C52.6003 8.72241 53.0901 8.77566 53.2747 8.94603C53.3848 9.04896 53.3954 9.27613 53.296 9.4607C53.2605 9.52814 53.0014 9.91148 52.7246 10.309C51.6313 11.8779 50.744 13.2515 50.6197 13.5674C50.5275 13.7946 50.5381 14.1637 50.641 14.3589C50.8008 14.6606 51.1699 14.8523 51.5994 14.8523C52.075 14.8523 52.9979 14.5932 53.5942 14.295C54.1266 14.0288 54.517 13.7378 54.9891 13.2692C55.2269 13.0279 55.4221 12.8149 55.4221 12.7972C55.4221 12.7759 55.3476 12.7936 55.2553 12.8327C54.549 13.1379 53.8604 13.3615 53.6119 13.3615C53.5409 13.3615 53.4522 13.3402 53.4167 13.3118C53.3244 13.2444 53.3315 13.0385 53.4273 12.8185C53.4664 12.7262 54.0201 11.8566 54.6519 10.8876C55.2837 9.91502 55.8445 9.03477 55.8977 8.93538C56.2633 8.20775 56.0681 7.70373 55.3227 7.46592C54.7051 7.2707 53.5729 7.36653 52.5009 7.70728L52.107 7.83151L52.0324 7.74632C51.7307 7.39493 51.1593 7.24585 50.5878 7.36653C49.6827 7.56175 48.4049 8.57334 47.01 10.2025C46.2007 11.1502 44.93 12.5594 44.6496 12.822C44.2663 13.1876 43.993 13.2905 44.0391 13.0456C44.0497 12.9924 44.8803 11.711 45.8813 10.199C46.8857 8.68692 47.7163 7.43042 47.7341 7.40557C47.7554 7.37363 47.514 7.36298 46.584 7.36298H45.4127L45.3027 7.54045L45.1927 7.71793L45.072 7.61144C44.3692 6.99384 41.9236 7.51916 40.3193 8.63368C39.0947 9.48199 38.0335 10.7278 37.3555 12.1086L37.1425 12.5381L36.8302 12.7333C36.1026 13.1912 35.7405 13.2834 35.5914 13.0563C35.5418 12.9782 35.5418 12.9533 35.5879 12.8362C35.6163 12.7617 36.4504 11.5123 37.4407 10.0606L39.2403 7.41622L38.1328 7.40557C37.2739 7.39848 37.0112 7.40912 36.9793 7.44107C36.958 7.46592 36.4149 8.26809 35.776 9.21934C35.1371 10.1741 34.4272 11.1964 34.1965 11.491C33.7422 12.0731 33.0288 12.8043 32.6987 13.0243C32.3366 13.2621 31.9994 13.2231 32.042 12.9498C32.0562 12.8788 33.0855 11.3313 34.8638 8.72596C36.4043 6.46142 37.6927 4.56958 37.7282 4.51279L37.7885 4.41695H36.6066ZM39.4461 4.81271C39.3179 4.81271 39.1835 4.82868 39.0344 4.86063C38.7398 4.92452 38.3387 5.14104 38.1896 5.31496C38.0193 5.51018 37.9163 5.75509 37.9128 5.95031C37.9092 6.08519 37.9305 6.14553 38.0157 6.25201C38.1896 6.47207 38.4132 6.56081 38.825 6.57501C39.652 6.6105 40.1915 6.29105 40.3512 5.68055C40.4613 5.26527 40.2731 4.97776 39.8224 4.86063C39.6964 4.82868 39.5744 4.81271 39.4461 4.81271ZM18.563 5.04343C18.5804 5.04099 18.595 5.0523 18.6145 5.0665C18.6536 5.09134 18.7316 5.17298 18.7884 5.24752C18.9517 5.44984 19.0191 5.6628 18.9943 5.88997C18.9553 6.28395 18.6074 6.73828 18.2099 6.92285C18.0147 7.01159 17.4929 7.10387 17.3935 7.06838C17.3332 7.04353 17.429 6.86961 18.1282 5.69475C18.4344 5.1783 18.511 5.05075 18.563 5.04343ZM31.8379 8.55825C31.9555 8.55755 32.0516 8.57999 32.1237 8.62658C32.2337 8.69402 32.255 8.83245 32.1946 9.04896C32.0846 9.42165 31.7261 9.85114 31.396 10.0038C31.2576 10.0677 31.1724 10.0783 30.8423 10.0747C30.5903 10.0712 30.3915 10.0499 30.2779 10.0144L30.104 9.95762L30.1289 10.1244C30.1715 10.4403 30.4235 10.8272 30.7323 11.0402L30.8317 11.1112L30.5938 11.5016C30.2957 11.9808 30.0827 12.2541 29.7668 12.5523C29.4616 12.8398 29.2664 12.9746 28.9327 13.1308C28.4038 13.3828 27.8892 13.3793 27.6691 13.1273C27.5733 13.0208 27.5591 12.9782 27.5591 12.7901C27.5591 12.5984 27.5804 12.5345 27.8004 12.1086C28.5494 10.6462 29.6461 9.46425 30.7749 8.89634C31.2166 8.67428 31.5793 8.55981 31.8379 8.55825ZM43.922 8.57511C44.014 8.5734 44.0963 8.58443 44.1669 8.60883C44.3692 8.67982 44.4047 8.88924 44.2627 9.19449C44.1456 9.4465 43.748 9.85823 43.5138 9.97537C43.2618 10.096 42.8713 10.1244 42.5057 10.0464C42.3602 10.0144 42.236 9.99666 42.2253 10.0038C42.1969 10.0322 42.3318 10.4332 42.4206 10.5823C42.4667 10.664 42.6016 10.8201 42.7223 10.9302L42.9352 11.1289L42.6939 11.5052C41.9556 12.6623 41.1783 13.2763 40.3867 13.3189C39.8579 13.3473 39.6307 13.1592 39.6733 12.7333C39.723 12.2612 40.6387 10.8059 41.3628 10.0464C42.1641 9.21091 43.278 8.58715 43.922 8.57511ZM55.6378 13.8212C55.4546 13.8212 55.2974 13.8865 55.1666 14.0173C55.0357 14.1481 54.9705 14.3055 54.9705 14.4885C54.9705 14.6727 55.0355 14.8301 55.1657 14.9605C55.2959 15.091 55.4533 15.1558 55.6378 15.1558C55.8216 15.1558 55.9784 15.0908 56.1089 14.9597C56.2395 14.8286 56.305 14.6714 56.305 14.4885C56.305 14.3061 56.2398 14.1493 56.1089 14.0182C55.9781 13.8871 55.8209 13.8212 55.6378 13.8212ZM55.6378 13.9498C55.7829 13.9498 55.907 14.0022 56.0104 14.1078C56.1139 14.2134 56.1657 14.3407 56.1657 14.4885C56.1657 14.6369 56.1139 14.7635 56.0104 14.8691C55.907 14.9748 55.7829 15.028 55.6378 15.028C55.492 15.028 55.3673 14.975 55.2642 14.87C55.1611 14.765 55.1098 14.6381 55.1098 14.4885C55.1098 14.3407 55.1616 14.2134 55.2651 14.1078C55.3685 14.0022 55.4926 13.9498 55.6378 13.9498ZM55.3795 14.1025V14.8745H55.5401V14.5603H55.6449L55.7735 14.8745H55.9466L55.7886 14.5284C55.8702 14.4869 55.9111 14.4203 55.9111 14.3279C55.9111 14.1776 55.8203 14.1025 55.6378 14.1025H55.3795ZM55.5401 14.2196H55.6315C55.7119 14.2196 55.7522 14.2548 55.7522 14.3252C55.7522 14.4044 55.7117 14.4441 55.6307 14.4441H55.5401V14.2196Z" fill="#961923"/>
</g>
<defs>
<clipPath id="clip0_1372_5169">
<rect width="57" height="20.8323" fill="white"/>
</clipPath>
</defs>
</svg>
