<svg width="53" height="21" viewBox="0 0 53 21" fill="none" xmlns="http://www.w3.org/2000/svg">
<g clip-path="url(#clip0_1372_5159)">
<path d="M0 20.7813H53V0H0V20.7813Z" fill="#F27620"/>
<path d="M2.40918 17.8896H9.14228L10.8348 13.7528L13.9481 17.8896H28.4521L32.9367 13.7114L32.1893 17.8896H37.8723L42.5607 13.7546L41.9183 17.8896H48.046L50.591 6.35438H44.4324L39.4413 10.7525L40.4049 6.35438H34.4996L28.0567 12.8107L30.75 4.90708H40.6026L41.0535 2.89209H15.2206L14.4609 4.90708H23.9613L19.9585 15.053L16.802 10.9057L22.2564 6.35438H17.6915L12.095 10.8297L13.979 6.35438H7.30766L2.40918 17.8896Z" fill="#221F1F"/>
</g>
<defs>
<clipPath id="clip0_1372_5159">
<rect width="53" height="20.7813" fill="white"/>
</clipPath>
</defs>
</svg>
