<?xml version="1.0" encoding="UTF-8"?>
<svg version="1.1" viewBox="0 0 2048 1101" width="1280" height="1280" xmlns="http://www.w3.org/2000/svg">
<path transform="translate(0)" d="m0 0h2048v1101h-2048z" fill="#FEFEFE"/>
<path transform="translate(466,173)" d="m0 0h65l37 3 28 4 36 7 26 7 27 9 27 11 16 8 10 7 10 9 8 11 8 15 4 15 1 6v20l-3 15-5 13-8 15-9 11-13 13-13 8-15 6-10 3-7 1h-11l-14-2-16-5-21-9-26-10-28-9-26-6-21-3-14-1h-30l-16 2-14 4-12 6-10 9-6 9-3 9-1 6v10l3 12 5 9 9 10 13 8 20 8 27 8 44 11 58 14 29 8 33 11 32 13 29 14 14 8 20 14 11 9 13 12 9 10 12 17 10 17 8 18 6 16v3h2l1-375 2-16 5-16 8-15 10-13 10-9 15-10 11-5 13-4 19-2 21 1 15 3 16 6 15 8 13 10 8 8 11 15 10 21 4 14 2 18v42l-2 17-6 17-11 25-14 31-12 26-15 33-11 25-12 27-13 29-7 15-8 18-10 22-10 24-8 28-4 24-1 10v28l3 25 6 26 10 30 13 27 10 15 12 16 9 10 7 8 12 11 16 13 23 16 11 7 1 2h-73l-23-2-17-4-13-5-15-8-16-12-8-7-11-14-8-14-7-16-4-15-2-14-1-13v-53h-2l-3 11-9 27-8 16-6 11-11 17-9 11-9 10-14 14-14 11-14 10-21 12-21 10-24 9-28 8-31 7-20 3-24 2h-66l-36-3-32-5-42-9-33-9-32-11-30-13-20-10-16-11-12-11-9-13-6-12-5-17-1-5v-22l4-19 7-17 7-11 9-10 9-8 13-8 14-5 16-3h16l15 3 13 5 23 11 16 8 25 10 30 10 27 6 31 5 21 2h34l24-4 16-5 12-6 10-9 5-9 3-8 1-4v-15l-5-14-7-9-12-9-21-10-19-7-32-9-41-10-30-7-48-14-36-12-25-10-21-10-21-12-16-11-13-10-13-12-11-12-12-17-11-21-9-27-5-23-2-15v-41l4-27 5-21 7-20 10-22 10-17 13-18 15-16 14-13 14-11 18-12 16-9 17-8 23-9 25-7 33-7 23-3z" fill="#393939"/>
<path transform="translate(1302,185)" d="m0 0h41l18 1 7 4 11 15 10 16 13 21 14 23 10 15 14 23 9 14 18 27 5 6 9 6 13 5 5 1 19-5 9-6 9-11 11-17 8-13 12-19 11-17 12-19 13-21 10-15 7-9 7-7 15-10 12-5 13-2h178l3 1 6 9-1 9-11 18-25 37-11 16-29 44-14 20-18 27-13 20-23 34-21 31-32 48-8 11-9 14-9 13-6 10v7l7 13 11 16 15 23 38 57 19 28 29 43 12 18 58 86 16 24 13 19 9 14 7 14v9l-5 9-8 5-5 2-15 1h-125l-21-1-17-3-13-5-12-7-10-8-9-10-15-23-13-21-12-19-14-22-12-19-16-25-12-17-8-6-10-4-5-1h-13l-12 4-9 7-9 12-22 34-16 25-11 17-15 24-7 11-15 23-13 20-6 8-10 5-7 1h-90l-12 1v-2l21-13 20-14 11-9 13-12 11-11 9-11 7-10 10-15 10-19 8-20 6-19 6-27 2-14 1-13v-26l-3-24-6-25-7-23-11-25-8-14-11-16-11-14-11-12-10-10-14-11-13-10-21-13-14-6-21-6-17-3-25-2-29-1-6-2 6-16 9-19 8-16 14-29 11-23 22-45 13-28 11-22 11-23 24-49 8-16 7-10 6-3z" fill="#393939"/>
<path transform="translate(1120,614)" d="m0 0h26l16 3 16 6 18 10 14 12 8 9 9 14 7 14 5 16 2 16v16l-3 19-6 18-8 14-13 16-10 9-16 10-12 6-16 5-13 2h-20l-18-3-14-5-16-8-13-10-9-8-9-11-9-14-6-15-4-13-1-5v-29l4-17 6-15 7-13 7-9 9-10 13-11 15-9 11-5 15-4z" fill="#393939"/>
</svg>
