<svg width="30" height="22" viewBox="0 0 30 22" fill="none" xmlns="http://www.w3.org/2000/svg">
<path d="M22.5 15.7132L22.5 6.28467" stroke="#AA82CC" stroke-width="1.39024" stroke-miterlimit="10"/>
<path d="M9.64348 7.07073C7.86813 7.07073 6.4292 6.01552 6.4292 4.71359C6.4292 3.41166 7.86813 2.35645 9.64348 2.35645C11.4188 2.35645 12.8578 3.41166 12.8578 4.71359C12.8578 6.01552 11.4188 7.07073 9.64348 7.07073Z" stroke="#AA82CC" stroke-width="1.39024" stroke-miterlimit="10" stroke-linecap="square"/>
<path d="M12.8576 19.642H6.42899L6.42899 15.7134H4.28613L4.28613 10.9992C4.28613 10.1309 5.24506 9.42773 6.42899 9.42773L12.8576 9.42773C14.0415 9.42773 15.0004 10.1309 15.0004 10.9992L15.0004 15.7134L12.8576 15.7134V19.642Z" stroke="#AA82CC" stroke-width="1.39024" stroke-miterlimit="10" stroke-linecap="square"/>
<path d="M19.2861 8.64181L22.5004 6.28467L25.7147 8.64181" stroke="#AA82CC" stroke-width="1.39024" stroke-miterlimit="10" stroke-linecap="square"/>
</svg>
