<svg width="23" height="23" viewBox="0 0 23 23" fill="none" xmlns="http://www.w3.org/2000/svg">
<path d="M19.7626 18.7852L15.4547 14.4782C16.7033 12.9792 17.3259 11.0566 17.193 9.11021C17.0602 7.16384 16.182 5.34364 14.7413 4.02824C13.3005 2.71284 11.4081 2.00353 9.45775 2.04786C7.50735 2.09218 5.64914 2.88674 4.26964 4.26623C2.89015 5.64572 2.0956 7.50394 2.05128 9.45433C2.00695 11.4047 2.71626 13.2971 4.03166 14.7379C5.34706 16.1786 7.16726 17.0567 9.11362 17.1896C11.06 17.3225 12.9827 16.6999 14.4817 15.4513L18.7886 19.7592C18.8526 19.8231 18.9285 19.8738 19.0121 19.9084C19.0956 19.9431 19.1852 19.9609 19.2756 19.9609C19.3661 19.9609 19.4556 19.9431 19.5392 19.9084C19.6227 19.8738 19.6986 19.8231 19.7626 19.7592C19.8265 19.6952 19.8773 19.6193 19.9119 19.5357C19.9465 19.4522 19.9643 19.3626 19.9643 19.2722C19.9643 19.1818 19.9465 19.0922 19.9119 19.0086C19.8773 18.9251 19.8265 18.8492 19.7626 18.7852ZM3.44492 9.63612C3.44492 8.41094 3.80822 7.21327 4.4889 6.19457C5.16957 5.17587 6.13704 4.38189 7.26896 3.91303C8.40088 3.44418 9.64641 3.3215 10.848 3.56053C12.0497 3.79955 13.1535 4.38953 14.0198 5.25586C14.8861 6.12219 15.4761 7.22597 15.7151 8.42761C15.9542 9.62925 15.8315 10.8748 15.3626 12.0067C14.8938 13.1386 14.0998 14.1061 13.0811 14.7868C12.0624 15.4674 10.8647 15.8307 9.63954 15.8307C7.99718 15.8289 6.42261 15.1757 5.26129 14.0144C4.09997 12.853 3.44674 11.2785 3.44492 9.63612Z" fill="#BDC1CA"/>
</svg>
