<svg width="36" height="36" viewBox="0 0 36 36" fill="none" xmlns="http://www.w3.org/2000/svg">
<path d="M28.7997 24.9273C28.2093 26.2116 27.9276 26.7849 27.1662 27.9198C26.1069 29.5047 24.6111 31.4784 22.7589 31.4955C21.1128 31.5108 20.6898 30.4443 18.456 30.456C16.2222 30.4677 15.756 31.5144 14.1099 31.4991C12.2577 31.4829 10.842 29.7 9.78092 28.1142C6.81542 23.6817 6.50582 18.4806 8.33462 15.7158C9.63422 13.7502 11.6853 12.6009 13.6131 12.6009C15.576 12.6009 16.8099 13.6575 18.4335 13.6575C20.0085 13.6575 20.967 12.5991 23.2377 12.5991C24.9531 12.5991 26.7711 13.5162 28.0662 15.1011C23.8227 17.3862 24.5121 23.3361 28.7997 24.9273Z" stroke="#171A1F" stroke-width="2.16" stroke-miterlimit="10" stroke-linecap="square"/>
<path d="M22.1042 8.7498C22.9637 7.6473 23.6153 6.0912 23.3786 4.5C21.9746 4.5963 20.3339 5.4891 19.3754 6.6528C18.506 7.7085 17.7869 9.2754 18.0659 10.7982C19.5977 10.8459 21.1835 9.9315 22.1042 8.7498Z" stroke="#171A1F" stroke-width="2.16" stroke-miterlimit="10" stroke-linecap="square"/>
</svg>
