<svg width="108" height="80" viewBox="0 0 108 80" fill="none" xmlns="http://www.w3.org/2000/svg">
<g clip-path="url(#clip0_1368_1729)">
<path d="M51.4794 79.438C67.0805 79.438 79.7274 66.791 79.7274 51.19C79.7274 35.5892 67.0805 22.9421 51.4794 22.9421C35.8785 22.9421 23.2314 35.5892 23.2314 51.19C23.2314 66.791 35.8785 79.438 51.4794 79.438Z" fill="white"/>
<path d="M51.5359 79.636C49.9695 79.636 48.3899 79.5084 46.8103 79.2444C31.3399 76.6748 20.8459 61.9964 23.4155 46.526C25.9851 31.0557 40.6679 20.5617 56.1339 23.1313C63.6271 24.3765 70.1875 28.4641 74.6051 34.6461C79.0227 40.8281 80.7695 48.3564 79.5243 55.8496C78.2791 63.3428 74.1915 69.9032 68.0095 74.3208C63.1387 77.81 57.4187 79.636 51.5359 79.636ZM51.4611 23.1269C37.9971 23.1269 26.0775 32.8773 23.7983 46.5876C21.2639 61.8468 31.6127 76.3272 46.8763 78.8616C54.2683 80.0892 61.6999 78.3688 67.7939 74.0084C73.8879 69.648 77.9227 63.18 79.1503 55.7836C80.3779 48.3916 78.6531 40.9645 74.2971 34.8661C69.9411 28.7677 63.4687 24.7373 56.0723 23.5097C54.5279 23.2545 52.9835 23.1269 51.4611 23.1269Z" fill="#242B2B"/>
<path d="M46.0829 41.9326L39.3291 33.1194C42.7919 30.783 46.9497 29.4234 51.4421 29.4234C51.6269 29.4234 51.8249 29.4234 52.0141 29.4454L51.0417 40.4938C49.2333 40.5554 47.5525 41.0702 46.0829 41.9326Z" fill="#F9623E"/>
<path d="M40.8859 49.8064H29.7803C30.1367 43.8182 32.9395 38.4898 37.1899 34.7894L43.9439 43.5938C42.3027 45.226 41.1939 47.3908 40.8859 49.8064Z" fill="#FF56A5"/>
<path d="M73.1446 51.1916C73.1446 63.1728 63.4382 72.8792 51.457 72.8792C39.9247 72.8792 30.4999 63.8856 29.8135 52.5292H40.9191C41.5747 57.7652 46.045 61.8176 51.4614 61.8176C57.331 61.8176 62.0918 57.0568 62.0918 51.1872C62.0918 46.0964 58.5102 41.837 53.723 40.7986L54.6954 29.7414C65.1366 31.3122 73.1446 40.3102 73.1446 51.1916Z" fill="#6D31ED"/>
<path d="M68.8171 46.5848L68.2539 46.0524L77.2651 36.5352H88.4059V37.3052H77.5995L68.8171 46.5848Z" fill="#242B2B"/>
<path d="M88.4128 38.9428H82.3672V39.7128H88.4128V38.9428Z" fill="#242B2B"/>
<path d="M88.4128 40.9929H82.3672V41.7629H88.4128V40.9929Z" fill="#242B2B"/>
<path d="M26.2062 51.536H15.0918V50.766H25.9202L34.7114 43.264L35.213 43.8536L26.2062 51.536Z" fill="#242B2B"/>
<path d="M21.1227 48.3628H15.0771V49.1328H21.1227V48.3628Z" fill="#242B2B"/>
<path d="M21.1227 46.3128H15.0771V47.0828H21.1227V46.3128Z" fill="#242B2B"/>
<path d="M23.454 24.1948C22.9876 27.1296 21.2848 29.5276 18.9793 30.9796C17.3337 32.018 16.1589 33.6548 15.7629 35.56L15.7013 35.8636L6.65929 33.9848L6.72089 33.6812C7.10809 31.82 6.75609 29.8576 5.66929 28.3C4.16887 26.1572 3.52207 23.4204 4.09847 20.6572C5.22929 15.21 10.6589 11.7604 16.1061 13.1112C21.0297 14.3256 24.2504 19.1876 23.454 24.1948Z" fill="#F9623E"/>
<path d="M6.4873 37.4224C6.5445 38.3772 6.9229 39.2748 7.5389 39.9744C8.1241 40.6388 8.92491 41.1316 9.86211 41.3252C11.7805 41.7256 13.6637 40.762 14.5129 39.0944L6.4873 37.4224Z" fill="#242B2B"/>
<path d="M13.4585 38.8683C12.8249 39.4227 12.0857 39.8187 11.2717 40.0519C10.7481 40.1971 10.2025 40.2763 9.65692 40.2807C8.93972 40.2851 8.23132 40.1751 7.54492 39.9683C8.13012 40.6327 8.93092 41.1255 9.86812 41.3191C11.7865 41.7195 13.6697 40.7559 14.5189 39.0883L13.4585 38.8683Z" fill="#242B2B"/>
<path d="M15.3174 37.4565L6.39424 35.5997C5.80024 35.4765 5.41744 34.8913 5.54064 34.2973C5.66384 33.7033 6.24904 33.3205 6.84304 33.4437L15.7662 35.3005C16.3602 35.4237 16.743 36.0089 16.6198 36.6029C16.4966 37.2013 15.9158 37.5797 15.3174 37.4565Z" fill="#242B2B"/>
<path d="M16.6158 36.6042C16.5542 36.9034 16.3782 37.1454 16.1406 37.2994C15.9074 37.4534 15.6082 37.5194 15.3134 37.4578L6.39022 35.601C5.95022 35.5086 5.62902 35.1698 5.54102 34.7606C5.69502 34.9894 5.93702 35.161 6.22742 35.2226L15.1506 37.0794C15.4498 37.141 15.7446 37.075 15.9778 36.921C16.2154 36.767 16.3914 36.525 16.453 36.2258C16.4838 36.0674 16.4838 35.9134 16.453 35.7682C16.6114 36.0014 16.6818 36.3006 16.6158 36.6042Z" fill="#242B2B"/>
<path d="M16.1696 38.7629C16.108 39.0621 15.932 39.3041 15.6944 39.4581C15.4612 39.6121 15.162 39.6781 14.8672 39.6165L5.94404 37.7597C5.35004 37.6365 4.96724 37.0513 5.09044 36.4573C5.15204 36.1581 5.32804 35.9161 5.56564 35.7621C5.79884 35.6081 6.09804 35.5421 6.39284 35.6037L15.316 37.4605C15.9144 37.5837 16.2972 38.1689 16.1696 38.7629Z" fill="#242B2B"/>
<path d="M16.1656 38.7741C16.104 39.0733 15.928 39.3153 15.6904 39.4693C15.4572 39.6233 15.158 39.6893 14.8632 39.6277L5.94002 37.7709C5.50002 37.6785 5.17882 37.3397 5.09082 36.9305C5.24482 37.1593 5.48682 37.3309 5.77722 37.3925L14.7004 39.2493C14.9996 39.3109 15.2944 39.2449 15.5276 39.0909C15.7652 38.9369 15.9412 38.6949 16.0028 38.3957C16.0336 38.2417 16.0336 38.0833 15.9984 37.9381C16.1612 38.1713 16.2316 38.4705 16.1656 38.7741Z" fill="#242B2B"/>
<path d="M12.736 27.477L12.6788 27.4418C12.6436 27.4198 12.5996 27.3934 12.5644 27.367C12.2432 27.1382 11.9747 26.4298 12.0979 25.827C12.1287 25.673 12.2167 25.3738 12.4279 25.145C12.6523 24.903 12.9428 24.815 13.2728 24.881C13.968 25.0262 14.0736 25.4926 14.0736 25.761C14.078 26.4386 13.396 27.3406 12.934 27.4418L12.8944 27.2526L12.9296 27.4418C12.89 27.4506 12.8459 27.4594 12.8063 27.4638L12.736 27.477ZM13.0704 25.2462C12.934 25.2462 12.8152 25.299 12.714 25.409C12.604 25.5278 12.5159 25.7082 12.4763 25.9062C12.3795 26.3638 12.5996 26.9182 12.7888 27.0546C12.7976 27.0634 12.8108 27.0678 12.8196 27.0766C12.8284 27.0766 12.8372 27.0722 12.846 27.0722L12.8547 27.0678C13.1055 27.015 13.6908 26.2978 13.6908 25.7654C13.6908 25.5938 13.6379 25.3562 13.1979 25.2638C13.1495 25.2506 13.11 25.2462 13.0704 25.2462Z" fill="white"/>
<path d="M13.4018 34.7809L13.0234 34.7017L14.383 28.1677C13.8506 28.1017 13.2962 27.8773 12.733 27.4989C12.0686 27.6177 11.4702 27.6045 10.951 27.4505L9.59144 33.9845L9.21304 33.9053L10.5858 27.3141C9.49464 26.8081 9.07224 25.6861 9.14704 24.8237C9.19544 24.2385 9.47264 23.8249 9.86424 23.7457C10.357 23.6445 10.7794 23.8205 11.0786 24.2561C11.3426 24.6345 11.435 25.1317 11.3338 25.6245L11.0346 27.0721C11.523 27.2217 12.095 27.2305 12.7418 27.1029L12.821 27.0853L12.887 27.1337C13.4326 27.5121 13.9606 27.7321 14.4622 27.7849L14.7614 26.3373C14.8626 25.8445 15.1442 25.4265 15.5358 25.1801C15.9802 24.8985 16.4378 24.9073 16.8558 25.1977C17.1814 25.4265 17.2694 25.9149 17.0846 26.4737C16.8074 27.2965 15.9714 28.1545 14.7746 28.1809L13.4018 34.7809ZM16.1914 25.3693C16.0462 25.3693 15.8966 25.4177 15.7426 25.5145C15.439 25.7037 15.219 26.0337 15.1398 26.4209L14.8538 27.7981C15.8218 27.7365 16.4906 27.0325 16.7194 26.3593C16.847 25.9765 16.8162 25.6509 16.6358 25.5233C16.4906 25.4221 16.341 25.3693 16.1914 25.3693ZM10.1282 24.1109C10.0666 24.1109 10.005 24.1197 9.93904 24.1329C9.72344 24.1769 9.56504 24.4629 9.52984 24.8633C9.46824 25.5717 9.80264 26.4869 10.665 26.9313L10.951 25.5541C11.0302 25.1669 10.9598 24.7753 10.7574 24.4805C10.5902 24.2297 10.3834 24.1109 10.1282 24.1109Z" fill="white"/>
<path d="M17.206 9.82291L16.8276 11.6401C16.7836 11.8557 16.5724 11.9921 16.3612 11.9481C16.1456 11.9041 16.0092 11.6929 16.0532 11.4773L16.4316 9.66011C16.4756 9.44451 16.6868 9.30811 16.9024 9.35211C17.1136 9.40051 17.25 9.60731 17.206 9.82291Z" fill="#F9623E"/>
<path d="M7.07924 11.1257L8.09564 12.6789C8.21884 12.8637 8.16604 13.1101 7.98564 13.2289C7.80084 13.3521 7.55444 13.2993 7.43564 13.1145L6.41924 11.5613C6.29604 11.3765 6.34884 11.1301 6.53364 11.0113C6.71404 10.8881 6.96044 10.9409 7.07924 11.1257Z" fill="#F9623E"/>
<path d="M0.842326 19.2338L2.65953 19.6122C2.87513 19.6562 3.01153 19.8674 2.96753 20.0786C2.92353 20.2942 2.71233 20.4306 2.49673 20.3866L0.679526 20.0082C0.463926 19.9642 0.327524 19.753 0.371524 19.5374C0.415524 19.3218 0.626726 19.1854 0.842326 19.2338Z" fill="#F9623E"/>
<path d="M26.5963 26.2265L24.7791 25.8481C24.5635 25.8041 24.4271 25.5929 24.4711 25.3817C24.5151 25.1661 24.7263 25.0297 24.9419 25.0737L26.7591 25.4521C26.9747 25.4961 27.1111 25.7073 27.0671 25.9229C27.0231 26.1341 26.8119 26.2749 26.5963 26.2265Z" fill="#F9623E"/>
<path d="M25.2842 16.0697L23.731 17.0861C23.5462 17.2093 23.2998 17.1565 23.181 16.9761C23.0578 16.7913 23.1106 16.5449 23.2954 16.4261L24.8486 15.4097C25.0334 15.2865 25.2798 15.3393 25.3986 15.5241C25.5218 15.7045 25.469 15.9465 25.2842 16.0697Z" fill="#F9623E"/>
<path d="M74.668 2.50398V26.0396V28.3628C74.668 29.4408 75.8824 30.0656 76.758 29.4364L81.1624 26.286C81.3868 26.1276 81.6552 26.0396 81.9324 26.0396H105.521C106.612 26.0396 107.496 25.1552 107.496 24.064V2.50398C107.496 1.41278 106.612 0.528381 105.521 0.528381H76.6436C75.5524 0.528381 74.668 1.41278 74.668 2.50398Z" fill="white"/>
<path d="M75.9877 29.8664C75.7501 29.8664 75.5125 29.8092 75.2925 29.6992C74.7865 29.4396 74.4697 28.9204 74.4697 28.3528V2.49842C74.4697 1.30162 75.4421 0.329224 76.6389 0.329224H105.521C106.717 0.329224 107.69 1.30162 107.69 2.49842V24.0584C107.69 25.2552 106.717 26.2276 105.521 26.2276H81.9321C81.6945 26.2276 81.4657 26.3024 81.2765 26.4388L76.8721 29.5892C76.6037 29.774 76.2957 29.8664 75.9877 29.8664ZM76.6389 0.716425C75.6577 0.716425 74.8569 1.51722 74.8569 2.49842V28.3528C74.8569 28.784 75.0857 29.158 75.4685 29.356C75.8513 29.554 76.2913 29.5232 76.6433 29.268L81.0477 26.1176C81.3073 25.9328 81.6109 25.836 81.9277 25.836H105.516C106.497 25.836 107.298 25.0352 107.298 24.054V2.49402C107.298 1.51282 106.497 0.712025 105.516 0.712025H76.6389V0.716425Z" fill="#242B2B"/>
<path d="M81.3196 19.7696L80.7344 19.2636L84.4524 14.956C85.0596 14.2564 86.0716 14.0936 86.8636 14.5776L91.4352 17.3628C91.8972 17.6444 92.4868 17.5564 92.8476 17.156L100.834 8.25037L101.406 8.76517L93.4196 17.6708C92.8124 18.3484 91.8092 18.498 91.0304 18.0228L86.4588 15.2376C85.9924 14.9516 85.3896 15.0484 85.0332 15.462L81.3196 19.7696Z" fill="#FF56A5"/>
<path d="M100.538 11.5772L98.1929 9.23642C97.7133 8.75682 97.9465 7.94282 98.6021 7.78442L101.673 7.05402C102.298 6.90442 102.861 7.46762 102.716 8.09242L101.99 11.1636C101.836 11.8236 101.018 12.0568 100.538 11.5772Z" fill="#FF56A5"/>
</g>
<defs>
<clipPath id="clip0_1368_1729">
<rect width="108" height="80" fill="white"/>
</clipPath>
</defs>
</svg>
