<svg width="114" height="145" viewBox="0 0 114 145" fill="none" xmlns="http://www.w3.org/2000/svg">
<path d="M99.9705 144.47H8.02904C7.35218 142.715 7.83621 140.653 9.37884 139.409C10.0636 138.862 10.8507 138.551 11.6574 138.457C11.6299 138.079 11.6377 137.694 11.6771 137.3C12.0549 133.778 15.2189 131.227 18.741 131.606C19.9177 131.735 20.9842 132.168 21.8696 132.825C22.7433 130.275 25.2895 128.571 28.0874 128.867C28.6542 128.926 29.1894 129.067 29.6852 129.272C29.8072 126.458 32.1291 124.211 34.9704 124.211C35.6788 124.211 36.3517 124.352 36.9695 124.601C37.8589 121.413 40.7828 119.075 44.2657 119.075H44.3404C46.5403 119.095 48.3388 117.371 48.3388 115.176V89.2061H57.7914V117.768C57.7914 118.946 58.3463 120.035 59.2357 120.799C59.2475 120.807 59.2593 120.819 59.2711 120.83C60.4832 121.877 62.1243 122.247 63.663 121.79C64.2572 121.614 64.8907 121.519 65.5443 121.519C69.1961 121.519 72.1555 124.482 72.1555 128.134C72.1555 128.406 72.1354 128.677 72.0999 128.941H72.1555C74.1902 128.941 75.9565 130.091 76.8465 131.775C78.0586 130.617 79.7549 129.98 81.553 130.172C83.4495 130.374 85.0401 131.456 85.9647 132.959C86.8811 132.227 88.0113 131.743 89.2626 131.606C92.7888 131.227 95.9529 133.778 96.326 137.3C96.366 137.689 96.3733 138.079 96.346 138.457C97.1486 138.547 97.9439 138.862 98.6246 139.409C100.159 140.653 100.651 142.715 99.9705 144.47Z" fill="#E4EBFF"/>
<path d="M100.088 144.535H96.3138C96.3019 143.256 95.7386 141.992 94.6648 141.127C93.9878 140.58 93.1925 140.269 92.3862 140.174C92.4135 139.797 92.4053 139.411 92.3662 139.018C91.9885 135.495 88.8281 132.945 85.3018 133.323C84.0506 133.461 82.9213 133.945 82.0049 134.677C81.0794 133.17 79.4897 132.092 77.5932 131.891C75.7942 131.698 74.1025 132.336 72.8867 133.492C72.0004 131.808 70.2341 130.659 68.1957 130.659H68.1402C68.1756 130.395 68.1957 130.123 68.1957 129.852C68.1957 126.2 65.236 123.237 61.584 123.237C60.9347 123.237 60.3011 123.331 59.7029 123.509C58.1642 123.965 57.015 118.337 57.9005 116.452V117.837C57.9005 119.014 58.4554 120.104 59.3447 120.868C59.3566 120.876 59.3684 120.888 59.3802 120.9C60.5923 121.946 62.2334 122.316 63.7721 121.86C64.3663 121.682 64.9998 121.588 65.6531 121.588C69.305 121.588 72.2643 124.551 72.2643 128.203C72.2643 128.474 72.2452 128.746 72.2097 129.01H72.2643C74.299 129.01 76.0663 130.159 76.9553 131.843C78.1675 130.687 79.8637 130.049 81.6618 130.242C83.5592 130.443 85.149 131.525 86.0735 133.028C86.9908 132.296 88.1201 131.812 89.3714 131.674C92.8976 131.296 96.0617 133.847 96.4357 137.369C96.4748 137.758 96.483 138.148 96.4548 138.525C97.2574 138.616 98.0528 138.931 98.7334 139.478C100.276 140.718 100.768 142.78 100.088 144.535Z" fill="#C5CDE3"/>
<path d="M63.5435 98.9755H44.4531V106.244H63.5435V98.9755Z" fill="white"/>
<path d="M63.7258 106.42H44.2773V98.7935H63.7258V106.42ZM44.6315 106.066H63.3677V99.152H44.6315V106.066Z" fill="#242B2B"/>
<path d="M23.6627 85.6272L26.8346 104.493C26.9763 105.792 28.0703 106.776 29.3729 106.776C30.0695 106.776 30.7031 106.496 31.1635 106.048C31.6239 105.595 31.9191 104.969 31.9309 104.277L32.5881 90.7505L40.4194 85.0412L36.1693 68.3628L24.7528 82.3963C23.9303 83.262 23.5368 84.447 23.6627 85.6272Z" fill="#FF4148"/>
<path d="M84.3466 85.6272L81.1752 104.493C81.0333 105.792 79.9395 106.776 78.6363 106.776C77.9402 106.776 77.3068 106.496 76.8464 106.048C76.3859 105.595 76.0902 104.969 76.0783 104.277L75.4213 90.7505L67.5898 85.0412L71.8405 68.3628L83.2564 82.3963C84.079 83.262 84.4731 84.447 84.3466 85.6272Z" fill="#FF4148"/>
<path d="M29.3736 106.942C27.9766 106.942 26.8078 105.891 26.6583 104.502L23.4864 85.6364C23.3565 84.3961 23.7697 83.1646 24.6237 82.2634L36.2565 67.9663L40.6208 85.1004L32.758 90.8307L32.1048 104.274C32.093 104.982 31.8018 105.656 31.2861 106.162C30.7706 106.663 30.0899 106.942 29.3736 106.942ZM23.8366 85.5927L27.0045 104.451C27.1384 105.671 28.1537 106.584 29.3697 106.584C29.9954 106.584 30.5857 106.343 31.0343 105.907C31.483 105.466 31.7348 104.884 31.7466 104.262L32.4077 90.646L32.4746 90.5941L40.2115 84.9548L36.0794 68.7376L24.8834 82.4996C24.1002 83.3338 23.7185 84.4598 23.8366 85.5927Z" fill="#242B2B"/>
<path d="M78.6373 106.943C77.9211 106.943 77.2405 106.667 76.7245 106.163C76.2094 105.656 75.9182 104.983 75.9064 104.27L75.253 90.8352L67.3906 85.1058L67.4216 84.9875L71.7586 67.9672L83.3993 82.2761C84.2456 83.1694 84.6588 84.3969 84.5287 85.6373V85.6482L81.3564 104.514C81.2035 105.892 80.0342 106.943 78.6373 106.943ZM67.7919 84.9557L75.5952 90.6468L75.5997 90.7333L76.2568 104.259C76.2686 104.885 76.5207 105.471 76.9693 105.912C77.4179 106.349 78.0076 106.588 78.6337 106.588C79.8494 106.588 80.865 105.675 80.9988 104.463L84.1701 85.5936C84.2884 84.4597 83.9108 83.3347 83.1273 82.5082L71.9233 68.7385L67.7919 84.9557Z" fill="#242B2B"/>
<path d="M72.6754 70.8754C72.4397 82.7326 70.8581 90.4459 68.3747 95.42H39.6268C37.1436 90.4459 35.5616 82.7326 35.3255 70.8754C34.7745 43.0132 37.9267 31.4944 41.7322 20.0465C46.8954 4.51761 53.2588 0.983695 53.1998 1.03485C53.1408 0.987626 60.0197 4.50978 65.6274 19.9993C69.7715 31.4432 73.2305 42.9738 72.6754 70.8754Z" fill="white"/>
<path d="M72.6856 70.9249C72.4454 82.7821 70.8675 90.4911 68.385 95.4697H39.6369C39.1568 94.5051 38.7081 93.4386 38.2988 92.2583H45.0913C58.5461 92.2583 69.5652 81.5227 69.8683 68.0678C69.8683 67.9498 69.8719 67.8317 69.8765 67.7136C70.3833 41.9529 67.4795 31.0992 63.7684 19.5884C64.3941 19.7221 65.0159 19.8796 65.6377 20.0448C69.7855 31.4927 73.2407 43.0193 72.6856 70.9249Z" fill="white"/>
<path d="M68.483 95.6011H39.5147L39.4675 95.5028C36.7836 90.1229 35.3708 82.0715 35.1465 70.8795C34.6034 43.3045 37.732 31.5181 41.5651 19.9915C46.7203 4.49022 53.1428 0.85791 53.1979 0.85791C53.2569 0.85791 60.1477 4.34071 65.7985 19.9365C70.132 31.9078 73.4016 43.2612 72.8547 70.8795C72.6308 82.0676 71.2176 90.1229 68.534 95.5028L68.483 95.6011ZM39.7351 95.2471H68.2628C70.8909 89.9145 72.2768 81.9417 72.4971 70.8755C73.044 43.3203 69.7816 31.9982 65.46 20.0624C60.3405 5.92265 54.2329 1.84962 53.2608 1.27505L53.2058 1.36557L53.1467 1.27505C52.2298 1.86535 46.6023 5.96597 41.9035 20.1056C38.0822 31.6008 34.9616 43.3557 35.5046 70.8755C35.721 81.9417 37.1063 89.9145 39.7351 95.2471Z" fill="#242B2B"/>
<path d="M68.133 99.8439H39.8619C38.8702 99.8439 38.0713 99.0413 38.0713 98.053V97.4397C38.0713 96.4478 38.8741 95.6488 39.8619 95.6488H68.133C69.1249 95.6488 69.9239 96.4514 69.9239 97.4397V98.053C69.9239 99.0413 69.1213 99.8439 68.133 99.8439Z" fill="#242B2B"/>
<path d="M68.1327 100.025H39.8613C38.7751 100.025 37.8896 99.1396 37.8896 98.054V97.4397C37.8896 96.3532 38.7751 95.4678 39.8613 95.4678H68.1327C69.2192 95.4678 70.1046 96.3532 70.1046 97.4397V98.054C70.1001 99.1396 69.2192 100.025 68.1327 100.025ZM39.8613 95.8263C38.9718 95.8263 38.2477 96.5507 38.2477 97.4397V98.054C38.2477 98.9431 38.9718 99.6674 39.8613 99.6674H68.1327C69.0217 99.6674 69.7461 98.9431 69.7461 98.054V97.4397C69.7461 96.5507 69.0217 95.8263 68.1327 95.8263H39.8613Z" fill="#242B2B"/>
<path d="M63.5936 105.223H44.3931C42.3113 105.223 40.627 106.911 40.627 108.99V111.516C40.627 112.511 41.4337 113.314 42.4254 113.314H65.5649C66.5604 113.314 67.3639 112.508 67.3639 111.516V108.99C67.3639 106.908 65.675 105.223 63.5936 105.223Z" fill="#242B2B"/>
<path d="M65.5717 113.505H42.4316C41.3415 113.505 40.4561 112.62 40.4561 111.53V109.003C40.4561 106.827 42.227 105.056 44.4032 105.056H63.6037C65.7801 105.056 67.5509 106.827 67.5509 109.003V111.526C67.5473 112.616 66.6619 113.505 65.5717 113.505ZM44.3993 105.41C42.4198 105.41 40.8102 107.02 40.8102 108.999V111.526C40.8102 112.419 41.5383 113.147 42.4316 113.147H65.5717C66.4644 113.147 67.1924 112.419 67.1924 111.526V108.999C67.1924 107.02 65.5835 105.41 63.6037 105.41H44.3993Z" fill="#242B2B"/>
<path d="M65.6317 19.8224C57.7611 17.7169 49.7959 17.7839 41.7363 19.8735C46.8995 4.34464 53.2629 0.810712 53.2039 0.861873C53.1409 0.814644 60.02 4.33681 65.6317 19.8224Z" fill="#FF4148"/>
<path d="M41.4482 20.1191L41.5505 19.8082C46.7058 4.30687 53.1283 0.674561 53.1833 0.674561C53.2424 0.674561 60.1332 4.15736 65.7845 19.7531L65.9029 20.0719L65.5716 19.9853C57.8625 17.9192 49.8541 17.9389 41.7669 20.0364L41.4482 20.1191ZM53.1362 1.0917C52.2271 1.67807 46.6743 5.72356 41.9952 19.6114C49.921 17.6083 57.7681 17.5887 65.3357 19.5563C60.2395 5.67642 54.2184 1.6584 53.2542 1.08777L53.1992 1.17828L53.1362 1.0917Z" fill="#242B2B"/>
<path d="M88.1064 65.4668L85.5429 64.6997C84.8623 64.4967 84.4782 63.7792 84.6812 63.1024L86.8561 55.8334C87.059 55.1521 87.777 54.7685 88.4531 54.9715L91.0166 55.7387C91.6982 55.9417 92.0813 56.6591 91.8784 57.3359L89.7035 64.605C89.5005 65.2817 88.7871 65.6699 88.1064 65.4668Z" fill="#007AFD"/>
<path d="M96.4062 67.9359L93.8428 67.1687C93.1621 66.9657 92.7781 66.2483 92.981 65.5715L96.388 54.1783C96.591 53.497 97.308 53.1135 97.9851 53.3165L100.549 54.0836C101.229 54.2866 101.613 55.004 101.41 55.6809L98.0033 67.074C97.8003 67.7553 97.0878 68.1389 96.4062 67.9359Z" fill="#FFD24F"/>
<path d="M104.714 70.4083L102.152 69.6413C101.47 69.4382 101.086 68.7208 101.29 68.0439L105.933 52.5267C106.136 51.8454 106.853 51.4618 107.53 51.6649L110.092 52.432C110.774 52.635 111.157 53.3524 110.954 54.0293L106.311 69.5465C106.108 70.2233 105.396 70.6113 104.714 70.4083Z" fill="white"/>
<path d="M88.466 65.7244C88.3258 65.7244 88.1811 65.7064 88.0419 65.6613L85.4784 64.8942C84.694 64.6595 84.2472 63.8293 84.4811 63.0397L86.656 55.7706C86.8908 54.9855 87.7261 54.5343 88.5106 54.7735L91.074 55.5405C91.4526 55.6534 91.7684 55.9105 91.9585 56.258C92.1478 56.6099 92.1879 57.0115 92.075 57.3905L89.9001 64.6595C89.6972 65.3048 89.1066 65.7244 88.466 65.7244ZM88.1547 65.2687C88.7271 65.4401 89.3277 65.1153 89.4988 64.5422L91.6737 57.2731C91.7547 56.998 91.7283 56.7047 91.5882 56.452C91.4526 56.1993 91.2224 56.0143 90.9475 55.9285L88.3841 55.1615C87.8162 54.9901 87.2111 55.3149 87.04 55.8879L84.8651 63.157C84.694 63.7255 85.0189 64.3302 85.5913 64.5016L88.1547 65.2687Z" fill="#242B2B"/>
<path d="M96.7776 68.1974C96.6329 68.1974 96.4892 68.1748 96.349 68.1342L93.7856 67.3672C93.0011 67.1325 92.5543 66.3023 92.7891 65.5127L96.1952 54.1196C96.43 53.3344 97.2599 52.8833 98.0498 53.1223L100.612 53.8894C100.992 54.0022 101.308 54.2594 101.497 54.6069C101.687 54.9588 101.727 55.3604 101.614 55.7394L98.2082 67.1325C98.0953 67.5115 97.8378 67.8274 97.4902 68.0169C97.2645 68.1342 97.0215 68.1974 96.7776 68.1974ZM96.4664 67.7416C96.7412 67.8229 97.0342 67.7958 97.2872 67.6559C97.5402 67.5206 97.7249 67.2905 97.8105 67.0152L101.218 55.6221C101.299 55.3468 101.271 55.0535 101.132 54.8009C100.996 54.5482 100.766 54.3632 100.491 54.2775L97.9279 53.5104C97.3591 53.339 96.7549 53.6639 96.5838 54.2369L93.1768 65.63C93.0057 66.1986 93.3305 66.8032 93.9029 66.9746L96.4664 67.7416Z" fill="#242B2B"/>
<path d="M104.714 70.4083L102.152 69.6413C101.47 69.4382 101.086 68.7208 101.29 68.0439L105.933 52.5267C106.136 51.8454 106.853 51.4618 107.53 51.6649L110.092 52.432C110.774 52.635 111.157 53.3524 110.954 54.0293L106.311 69.5465C106.108 70.2233 105.396 70.6113 104.714 70.4083Z" fill="#FF4148"/>
<path d="M105.077 70.6655C104.936 70.6655 104.793 70.6475 104.652 70.6024L102.089 69.8353C101.71 69.7225 101.395 69.4653 101.205 69.1179C101.015 68.7659 100.975 68.3643 101.088 67.9853L105.731 52.4636C105.966 51.6785 106.796 51.2317 107.585 51.4664L110.148 52.2335C110.527 52.3463 110.843 52.6035 111.032 52.9509C111.222 53.3028 111.263 53.7044 111.15 54.0834L106.507 69.6052C106.309 70.2505 105.713 70.6655 105.077 70.6655ZM104.765 70.2143C105.339 70.3858 105.938 70.0609 106.109 69.4879L110.753 53.9661C110.834 53.6909 110.807 53.3976 110.667 53.1449C110.532 52.8922 110.302 52.7072 110.026 52.6215L107.463 51.8545C106.89 51.683 106.29 52.0079 106.118 52.5809L101.476 68.1027C101.395 68.3779 101.422 68.6712 101.561 68.9239C101.697 69.1766 101.927 69.3616 102.202 69.4473L104.765 70.2143Z" fill="#242B2B"/>
<path d="M89.6647 51.7851C89.4436 51.7851 89.2634 51.6091 89.2589 51.3835C89.2543 51.1579 89.4345 50.9729 89.6602 50.9683C97.7146 50.8014 105.101 48.974 111.621 45.5448C111.82 45.441 112.068 45.5177 112.172 45.7163C112.276 45.9147 112.198 46.163 112 46.2667C105.371 49.7591 97.8593 51.6136 89.6784 51.7851C89.6738 51.7851 89.6693 51.7851 89.6647 51.7851Z" fill="black"/>
<path d="M110.7 48.3434L109.279 45.2929C109.117 44.9409 109.41 44.5529 109.794 44.6161L112.736 45.0989C113.07 45.153 113.246 45.5276 113.07 45.8164L111.554 48.3841C111.356 48.718 110.863 48.6909 110.7 48.3434Z" fill="#242B2B"/>
<path d="M3.60943 40.3982C3.8261 41.1473 4.12321 41.8654 4.49467 42.5402L3.04605 44.9855L6.20948 48.149L8.66102 46.6941C9.32959 47.0718 10.0477 47.3689 10.7968 47.5794L11.5025 50.3404H15.9722L16.6779 47.5794C17.427 47.3689 18.1451 47.0718 18.8137 46.6941L21.2652 48.149L24.4287 44.9855L22.98 42.5402C23.3515 41.8654 23.6486 41.1535 23.8653 40.3982L26.6201 39.6987V35.2228L23.8653 34.5233C23.6486 33.7742 23.3515 33.0499 22.98 32.3813L24.4287 29.936L21.2652 26.7725L18.8199 28.2273C18.1513 27.8559 17.4332 27.5588 16.6779 27.3421L15.9722 24.5811H11.5025L10.7968 27.3421C10.0477 27.5588 9.32341 27.8559 8.65483 28.2273L6.20948 26.7725L3.04605 29.936L4.49467 32.3813C4.12321 33.0499 3.8261 33.768 3.60943 34.5233L0.854492 35.2228V39.6987L3.60943 40.3982Z" fill="#007AFD"/>
<path d="M19.3094 37.4548C19.3094 40.5328 16.8143 43.028 13.7363 43.028C10.6583 43.028 8.16309 40.5328 8.16309 37.4548C8.16309 34.3768 10.6583 31.8817 13.7363 31.8817C16.8143 31.8817 19.3094 34.3768 19.3094 37.4548Z" fill="white" stroke="black" stroke-width="0.455" stroke-linecap="round"/>
<path d="M67.0571 54.8624C67.0571 62.2488 61.0695 68.2368 53.683 68.2368C46.2966 68.2368 40.3086 62.2488 40.3086 54.8624C40.3086 47.4759 46.2966 41.4879 53.683 41.4879C61.0695 41.4879 67.0571 47.4759 67.0571 54.8624Z" fill="#E4EBFF" stroke="black" stroke-width="0.455" stroke-linecap="round"/>
<path d="M53.7267 45.1079L55.8144 51.5332C55.8814 51.7394 56.0736 51.879 56.2904 51.879H63.0464C63.0618 51.879 63.0694 51.8833 63.0739 51.8868C63.0799 51.8914 63.086 51.8993 63.0897 51.9105C63.0933 51.9216 63.093 51.9317 63.0909 51.9389C63.0892 51.9444 63.0857 51.9523 63.0731 51.9614L57.6074 55.9324C57.432 56.0598 57.3586 56.2858 57.4256 56.492L59.5133 62.9173C59.5181 62.9321 59.5164 62.9405 59.5145 62.9459C59.5119 62.9529 59.5063 62.9613 59.4968 62.9682C59.4874 62.9751 59.4776 62.9779 59.4702 62.9781C59.4644 62.9783 59.4558 62.9773 59.4433 62.9682L53.9776 58.9971C53.8022 58.8696 53.5646 58.8696 53.3893 58.9971L47.9235 62.9682C47.911 62.9773 47.9024 62.9783 47.8967 62.9781C47.8892 62.9779 47.8795 62.9751 47.87 62.9682C47.8606 62.9613 47.8549 62.9529 47.8524 62.9459C47.8505 62.9405 47.8487 62.9321 47.8535 62.9173L49.9412 56.492C50.0083 56.2858 49.9348 56.0598 49.7594 55.9324L44.2937 51.9614C44.2812 51.9523 44.2775 51.9444 44.276 51.9389C44.2739 51.9317 44.2735 51.9216 44.2772 51.9105C44.2808 51.8993 44.287 51.8914 44.2929 51.8868C44.2975 51.8833 44.305 51.879 44.3204 51.879H51.0764C51.2933 51.879 51.4855 51.7394 51.5524 51.5332L53.6402 45.1079C53.6449 45.0932 53.6513 45.0873 53.656 45.0841C53.6622 45.0799 53.6717 45.0764 53.6834 45.0764C53.6951 45.0764 53.7047 45.0799 53.7108 45.0841C53.7155 45.0873 53.7219 45.0932 53.7267 45.1079Z" fill="#FFD24F" stroke="black" stroke-width="0.455" stroke-linecap="round"/>
</svg>
